<svg width="36" height="36" viewBox="0 0 36 36" fill="none" xmlns="http://www.w3.org/2000/svg">
<rect width="36" height="36" rx="18" fill="#C1CAD0"/>
<path opacity="0.2" d="M18.625 16.4375C18.625 17.241 18.3867 18.0264 17.9403 18.6945C17.494 19.3626 16.8595 19.8833 16.1172 20.1908C15.3748 20.4982 14.558 20.5787 13.7699 20.4219C12.9819 20.2652 12.258 19.8783 11.6899 19.3101C11.1217 18.742 10.7348 18.0181 10.5781 17.2301C10.4213 16.442 10.5018 15.6252 10.8092 14.8828C11.1167 14.1405 11.6374 13.506 12.3055 13.0597C12.9736 12.6133 13.759 12.375 14.5625 12.375C15.6399 12.375 16.6733 12.803 17.4351 13.5649C18.197 14.3267 18.625 15.3601 18.625 16.4375Z" fill="white"/>
<path d="M17.1598 20.3374C17.9974 19.7798 18.6334 18.9674 18.9736 18.0203C19.3138 17.0732 19.3402 16.0418 19.0489 15.0786C18.7576 14.1154 18.1641 13.2715 17.356 12.6717C16.548 12.0719 15.5684 11.748 14.5621 11.748C13.5558 11.748 12.5762 12.0719 11.7682 12.6717C10.9602 13.2715 10.3666 14.1154 10.0753 15.0786C9.784 16.0418 9.81041 17.0732 10.1506 18.0203C10.4908 18.9674 11.1268 19.7798 11.9645 20.3374C10.4492 20.8959 9.15516 21.9293 8.27539 23.2835C8.22916 23.3523 8.19704 23.4295 8.18091 23.5107C8.16478 23.592 8.16496 23.6756 8.18144 23.7568C8.19792 23.838 8.23037 23.915 8.2769 23.9836C8.32344 24.0521 8.38313 24.1107 8.4525 24.1559C8.52188 24.2012 8.59956 24.2322 8.68102 24.2472C8.76249 24.2621 8.84612 24.2607 8.92705 24.2431C9.00797 24.2255 9.08459 24.1919 9.15244 24.1444C9.22029 24.0969 9.27802 24.0364 9.32227 23.9664C9.88976 23.0935 10.6663 22.3763 11.5814 21.8798C12.4964 21.3833 13.521 21.1232 14.5621 21.1232C15.6032 21.1232 16.6278 21.3833 17.5429 21.8798C18.4579 22.3763 19.2345 23.0935 19.802 23.9664C19.8936 24.1026 20.0352 24.1973 20.1962 24.23C20.3571 24.2626 20.5244 24.2307 20.662 24.1409C20.7995 24.0512 20.8962 23.911 20.9312 23.7506C20.9661 23.5901 20.9366 23.4224 20.8488 23.2835C19.9691 21.9293 18.675 20.8959 17.1598 20.3374ZM11.1246 16.4374C11.1246 15.7576 11.3262 15.093 11.7039 14.5277C12.0817 13.9624 12.6185 13.5218 13.2466 13.2616C13.8748 13.0014 14.5659 12.9334 15.2327 13.066C15.8995 13.1986 16.512 13.526 16.9928 14.0068C17.4735 14.4875 17.8009 15.1 17.9336 15.7668C18.0662 16.4336 17.9981 17.1248 17.7379 17.7529C17.4778 18.381 17.0372 18.9179 16.4719 19.2956C15.9066 19.6733 15.242 19.8749 14.5621 19.8749C13.6507 19.8739 12.777 19.5114 12.1326 18.867C11.4881 18.2226 11.1256 17.3488 11.1246 16.4374ZM27.5418 24.1484C27.403 24.2389 27.2339 24.2706 27.0717 24.2365C26.9095 24.2023 26.7675 24.1052 26.677 23.9664C26.1101 23.093 25.3337 22.3755 24.4185 21.8791C23.5032 21.3828 22.4783 21.1236 21.4371 21.1249C21.2714 21.1249 21.1124 21.0591 20.9952 20.9419C20.878 20.8247 20.8121 20.6657 20.8121 20.4999C20.8121 20.3342 20.878 20.1752 20.9952 20.058C21.1124 19.9408 21.2714 19.8749 21.4371 19.8749C21.9433 19.8745 22.4432 19.7622 22.901 19.5461C23.3588 19.3301 23.7632 19.0156 24.0854 18.6251C24.4076 18.2346 24.6395 17.7778 24.7647 17.2873C24.8898 16.7968 24.9051 16.2847 24.8094 15.7876C24.7137 15.2905 24.5094 14.8206 24.211 14.4117C23.9127 14.0027 23.5277 13.6646 23.0836 13.4217C22.6395 13.1787 22.1472 13.0369 21.6419 13.0063C21.1366 12.9756 20.6308 13.057 20.1606 13.2445C20.0839 13.2776 20.0014 13.2951 19.9178 13.2958C19.8343 13.2965 19.7515 13.2804 19.6743 13.2486C19.5971 13.2167 19.527 13.1698 19.4683 13.1104C19.4095 13.051 19.3633 12.9805 19.3323 12.9029C19.3012 12.8254 19.2861 12.7424 19.2877 12.6589C19.2893 12.5754 19.3076 12.493 19.3415 12.4167C19.3755 12.3404 19.4244 12.2717 19.4854 12.2146C19.5463 12.1575 19.6181 12.1132 19.6965 12.0843C20.7726 11.6551 21.9696 11.6397 23.0564 12.041C24.1433 12.4422 25.043 13.2318 25.5821 14.2573C26.1212 15.2828 26.2614 16.4716 25.9756 17.5944C25.6899 18.7172 24.9985 19.6944 24.0348 20.3374C25.55 20.8959 26.8441 21.9293 27.7238 23.2835C27.8144 23.4224 27.846 23.5915 27.8119 23.7537C27.7778 23.9158 27.6806 24.0578 27.5418 24.1484Z" fill="white"/>
</svg>
