<svg width="37" height="36" viewBox="0 0 37 36" fill="none" xmlns="http://www.w3.org/2000/svg">
<rect x="0.166992" width="36" height="36" rx="18" fill="#C1CAD0"/>
<path opacity="0.2" d="M14.417 19.25V22.375C14.417 22.7065 14.2853 23.0245 14.0509 23.2589C13.8165 23.4933 13.4985 23.625 13.167 23.625H11.917C11.5855 23.625 11.2675 23.4933 11.0331 23.2589C10.7987 23.0245 10.667 22.7065 10.667 22.375V18H13.167C13.4985 18 13.8165 18.1317 14.0509 18.3661C14.2853 18.6005 14.417 18.9185 14.417 19.25ZM23.167 18C22.8355 18 22.5175 18.1317 22.2831 18.3661C22.0487 18.6005 21.917 18.9185 21.917 19.25V22.375C21.917 22.7065 22.0487 23.0245 22.2831 23.2589C22.5175 23.4933 22.8355 23.625 23.167 23.625H25.667V18H23.167Z" fill="white"/>
<path d="M23.9396 12.2705C22.8046 11.1287 21.3561 10.3497 19.7778 10.032C18.1995 9.71426 16.5624 9.87225 15.074 10.4859C13.5856 11.0995 12.3128 12.1412 11.417 13.4789C10.5212 14.8166 10.0426 16.3902 10.042 18.0001V22.3751C10.042 22.8724 10.2395 23.3493 10.5912 23.701C10.9428 24.0526 11.4197 24.2501 11.917 24.2501H13.167C13.6643 24.2501 14.1412 24.0526 14.4928 23.701C14.8444 23.3493 15.042 22.8724 15.042 22.3751V19.2501C15.042 18.7529 14.8444 18.2759 14.4928 17.9243C14.1412 17.5727 13.6643 17.3751 13.167 17.3751H11.3201C11.4407 16.072 11.9301 14.8301 12.7312 13.7952C13.5323 12.7603 14.6118 11.9752 15.8432 11.5318C17.0745 11.0885 18.4067 11.0053 19.6837 11.2921C20.9606 11.5789 22.1294 12.2237 23.0529 13.1509C24.1818 14.2855 24.8761 15.7807 25.0146 17.3751H23.167C22.6697 17.3751 22.1928 17.5727 21.8412 17.9243C21.4895 18.2759 21.292 18.7529 21.292 19.2501V22.3751C21.292 22.8724 21.4895 23.3493 21.8412 23.701C22.1928 24.0526 22.6697 24.2501 23.167 24.2501H25.042C25.042 24.7474 24.8444 25.2243 24.4928 25.576C24.1412 25.9276 23.6643 26.1251 23.167 26.1251H18.792C18.6262 26.1251 18.4673 26.191 18.35 26.3082C18.2328 26.4254 18.167 26.5844 18.167 26.7501C18.167 26.9159 18.2328 27.0749 18.35 27.1921C18.4673 27.3093 18.6262 27.3751 18.792 27.3751H23.167C23.9958 27.3751 24.7906 27.0459 25.3767 26.4599C25.9628 25.8738 26.292 25.0789 26.292 24.2501V18.0001C26.2961 16.9373 26.0904 15.8841 25.6867 14.9009C25.2831 13.9177 24.6894 13.0238 23.9396 12.2705ZM13.167 18.6251C13.3328 18.6251 13.4917 18.691 13.6089 18.8082C13.7261 18.9254 13.792 19.0844 13.792 19.2501V22.3751C13.792 22.5409 13.7261 22.6999 13.6089 22.8171C13.4917 22.9343 13.3328 23.0001 13.167 23.0001H11.917C11.7512 23.0001 11.5923 22.9343 11.4751 22.8171C11.3578 22.6999 11.292 22.5409 11.292 22.3751V18.6251H13.167ZM23.167 23.0001C23.0012 23.0001 22.8423 22.9343 22.725 22.8171C22.6078 22.6999 22.542 22.5409 22.542 22.3751V19.2501C22.542 19.0844 22.6078 18.9254 22.725 18.8082C22.8423 18.691 23.0012 18.6251 23.167 18.6251H25.042V23.0001H23.167Z" fill="white"/>
</svg>
