<svg width="40" height="40" viewBox="0 0 40 40" fill="none" xmlns="http://www.w3.org/2000/svg">
<rect x="0.5" y="0.5" width="39" height="39" rx="7.5" fill="#F1F3FA"/>
<rect x="0.5" y="0.5" width="39" height="39" rx="7.5" stroke="#226597"/>
<path opacity="0.2" d="M33.75 7.5V13.75H6.25V7.5C6.25 7.16848 6.3817 6.85054 6.61612 6.61612C6.85054 6.3817 7.16848 6.25 7.5 6.25H32.5C32.8315 6.25 33.1495 6.3817 33.3839 6.61612C33.6183 6.85054 33.75 7.16848 33.75 7.5Z" fill="white"/>
<path d="M32.5 5H28.75V3.75C28.75 3.41848 28.6183 3.10054 28.3839 2.86612C28.1495 2.6317 27.8315 2.5 27.5 2.5C27.1685 2.5 26.8505 2.6317 26.6161 2.86612C26.3817 3.10054 26.25 3.41848 26.25 3.75V5H13.75V3.75C13.75 3.41848 13.6183 3.10054 13.3839 2.86612C13.1495 2.6317 12.8315 2.5 12.5 2.5C12.1685 2.5 11.8505 2.6317 11.6161 2.86612C11.3817 3.10054 11.25 3.41848 11.25 3.75V5H7.5C6.83696 5 6.20107 5.26339 5.73223 5.73223C5.26339 6.20107 5 6.83696 5 7.5V32.5C5 33.163 5.26339 33.7989 5.73223 34.2678C6.20107 34.7366 6.83696 35 7.5 35H32.5C33.163 35 33.7989 34.7366 34.2678 34.2678C34.7366 33.7989 35 33.163 35 32.5V7.5C35 6.83696 34.7366 6.20107 34.2678 5.73223C33.7989 5.26339 33.163 5 32.5 5ZM11.25 7.5V8.75C11.25 9.08152 11.3817 9.39946 11.6161 9.63388C11.8505 9.8683 12.1685 10 12.5 10C12.8315 10 13.1495 9.8683 13.3839 9.63388C13.6183 9.39946 13.75 9.08152 13.75 8.75V7.5H26.25V8.75C26.25 9.08152 26.3817 9.39946 26.6161 9.63388C26.8505 9.8683 27.1685 10 27.5 10C27.8315 10 28.1495 9.8683 28.3839 9.63388C28.6183 9.39946 28.75 9.08152 28.75 8.75V7.5H32.5V12.5H7.5V7.5H11.25ZM32.5 32.5H7.5V15H32.5V32.5ZM21.875 20.625C21.875 20.9958 21.765 21.3584 21.559 21.6667C21.353 21.975 21.0601 22.2154 20.7175 22.3573C20.3749 22.4992 19.9979 22.5363 19.6342 22.464C19.2705 22.3916 18.9364 22.213 18.6742 21.9508C18.412 21.6886 18.2334 21.3545 18.161 20.9908C18.0887 20.6271 18.1258 20.2501 18.2677 19.9075C18.4096 19.5649 18.65 19.272 18.9583 19.066C19.2666 18.86 19.6292 18.75 20 18.75C20.4973 18.75 20.9742 18.9475 21.3258 19.2992C21.6775 19.6508 21.875 20.1277 21.875 20.625ZM28.75 20.625C28.75 20.9958 28.64 21.3584 28.434 21.6667C28.228 21.975 27.9351 22.2154 27.5925 22.3573C27.2499 22.4992 26.8729 22.5363 26.5092 22.464C26.1455 22.3916 25.8114 22.213 25.5492 21.9508C25.287 21.6886 25.1084 21.3545 25.036 20.9908C24.9637 20.6271 25.0008 20.2501 25.1427 19.9075C25.2846 19.5649 25.525 19.272 25.8333 19.066C26.1416 18.86 26.5042 18.75 26.875 18.75C27.3723 18.75 27.8492 18.9475 28.2008 19.2992C28.5525 19.6508 28.75 20.1277 28.75 20.625ZM15 26.875C15 27.2458 14.89 27.6084 14.684 27.9167C14.478 28.225 14.1851 28.4654 13.8425 28.6073C13.4999 28.7492 13.1229 28.7863 12.7592 28.714C12.3955 28.6416 12.0614 28.463 11.7992 28.2008C11.537 27.9386 11.3584 27.6045 11.286 27.2408C11.2137 26.8771 11.2508 26.5001 11.3927 26.1575C11.5346 25.8149 11.775 25.522 12.0833 25.316C12.3916 25.11 12.7542 25 13.125 25C13.6223 25 14.0992 25.1975 14.4508 25.5492C14.8025 25.9008 15 26.3777 15 26.875ZM21.875 26.875C21.875 27.2458 21.765 27.6084 21.559 27.9167C21.353 28.225 21.0601 28.4654 20.7175 28.6073C20.3749 28.7492 19.9979 28.7863 19.6342 28.714C19.2705 28.6416 18.9364 28.463 18.6742 28.2008C18.412 27.9386 18.2334 27.6045 18.161 27.2408C18.0887 26.8771 18.1258 26.5001 18.2677 26.1575C18.4096 25.8149 18.65 25.522 18.9583 25.316C19.2666 25.11 19.6292 25 20 25C20.4973 25 20.9742 25.1975 21.3258 25.5492C21.6775 25.9008 21.875 26.3777 21.875 26.875ZM28.75 26.875C28.75 27.2458 28.64 27.6084 28.434 27.9167C28.228 28.225 27.9351 28.4654 27.5925 28.6073C27.2499 28.7492 26.8729 28.7863 26.5092 28.714C26.1455 28.6416 25.8114 28.463 25.5492 28.2008C25.287 27.9386 25.1084 27.6045 25.036 27.2408C24.9637 26.8771 25.0008 26.5001 25.1427 26.1575C25.2846 25.8149 25.525 25.522 25.8333 25.316C26.1416 25.11 26.5042 25 26.875 25C27.3723 25 27.8492 25.1975 28.2008 25.5492C28.5525 25.9008 28.75 26.3777 28.75 26.875Z" fill="#226597"/>
</svg>
