<svg width="40" height="40" viewBox="0 0 40 40" fill="none" xmlns="http://www.w3.org/2000/svg">
<path opacity="0.2" d="M36.1973 33.3951C36.2605 33.6105 36.2646 33.8389 36.2091 34.0564C36.1536 34.2739 36.0405 34.4725 35.8818 34.6312C35.7231 34.7899 35.5245 34.903 35.307 34.9585C35.0895 35.014 34.8611 35.0099 34.6457 34.9467L30.3129 33.6717C28.8816 34.4371 27.3018 34.884 25.6816 34.9817C24.0614 35.0795 22.4393 34.8257 20.9264 34.2378C19.4135 33.65 18.0456 32.7419 16.9165 31.576C15.7874 30.41 14.9237 29.0136 14.3848 27.4826C14.5895 27.4936 14.7941 27.4998 15.0004 27.4998C16.7986 27.4999 18.5706 27.069 20.1679 26.2432C21.7652 25.4174 23.1413 24.2207 24.1808 22.7535C25.2204 21.2862 25.893 19.5912 26.1425 17.8104C26.3919 16.0296 26.2108 14.2149 25.6145 12.5186C27.5042 12.6212 29.3376 13.1989 30.9448 14.1982C32.552 15.1976 33.8812 16.5862 34.8092 18.2357C35.7372 19.8851 36.2341 21.742 36.2538 23.6345C36.2736 25.527 35.8156 27.3938 34.9223 29.0623L36.1973 33.3951Z" fill="#226597"/>
<path d="M36.2607 29.181C37.1244 27.3896 37.5482 25.4179 37.4969 23.4298C37.4456 21.4417 36.9207 19.4945 35.9657 17.75C35.0107 16.0055 33.6532 14.5141 32.0061 13.3996C30.3589 12.2851 28.4696 11.5796 26.4951 11.3419C25.8381 9.81439 24.8829 8.43328 23.6855 7.27948C22.4881 6.12568 21.0725 5.22239 19.5216 4.62251C17.9707 4.02263 16.3158 3.73821 14.6536 3.78591C12.9914 3.8336 11.3555 4.21246 9.84157 4.9003C8.32765 5.58813 6.96618 6.57111 5.83689 7.79168C4.70761 9.01225 3.8332 10.4459 3.26488 12.0086C2.69656 13.5713 2.44575 15.2317 2.52714 16.8926C2.60853 18.5534 3.02047 20.1813 3.73886 21.681L2.60292 25.5419C2.47591 25.973 2.46742 26.4302 2.57834 26.8657C2.68925 27.3011 2.91548 27.6986 3.23321 28.0163C3.55094 28.3341 3.94844 28.5603 4.38387 28.6712C4.81931 28.7821 5.27659 28.7736 5.70761 28.6466L9.56855 27.5107C10.8083 28.1063 12.1374 28.4943 13.5029 28.6591C14.1663 30.2135 15.138 31.6172 16.3593 32.7854C17.5806 33.9536 19.0261 34.862 20.6084 35.4557C22.1908 36.0494 23.877 36.3161 25.5653 36.2396C27.2536 36.1631 28.9089 35.745 30.431 35.0107L34.292 36.1466C34.7228 36.2735 35.1799 36.2819 35.6152 36.1711C36.0504 36.0602 36.4478 35.8342 36.7654 35.5166C37.0831 35.1991 37.3094 34.8019 37.4205 34.3667C37.5315 33.9315 37.5233 33.4744 37.3967 33.0435L36.2607 29.181ZM9.6873 24.9216C9.56784 24.9219 9.44901 24.9387 9.33417 24.9716L4.9998 26.2498L6.27636 21.9123C6.36715 21.5989 6.33182 21.2624 6.17792 20.9748C5.04715 18.86 4.71397 16.4094 5.23912 14.0695C5.76426 11.7297 7.11275 9.65647 9.03877 8.2278C10.9648 6.79913 13.3401 6.11016 15.7317 6.28648C18.1232 6.4628 20.3718 7.49266 22.0675 9.18834C23.7631 10.884 24.793 13.1326 24.9693 15.5242C25.1456 17.9157 24.4567 20.291 23.028 22.217C21.5993 24.1431 19.5261 25.4915 17.1863 26.0167C14.8464 26.5418 12.3958 26.2086 10.281 25.0779C10.0992 24.9772 9.89512 24.9235 9.6873 24.9216ZM33.717 29.4107L34.9998 33.7498L30.6623 32.4732C30.3489 32.3824 30.0125 32.4177 29.7248 32.5716C27.423 33.8007 24.7321 34.0822 22.2258 33.356C19.7194 32.6298 17.5958 30.9534 16.3076 28.6841C18.0191 28.5055 19.6753 27.9751 21.1721 27.1262C22.669 26.2773 23.9743 25.1282 25.0061 23.751C26.0379 22.3739 26.774 20.7983 27.1682 19.1233C27.5623 17.4482 27.6061 15.7097 27.2967 14.0169C28.7879 14.3685 30.1784 15.0579 31.3609 16.0321C32.5434 17.0063 33.4862 18.2392 34.1166 19.6356C34.7471 21.032 35.0482 22.5546 34.9967 24.0858C34.9453 25.617 34.5428 27.116 33.8201 28.4669C33.6645 28.7564 33.6292 29.0954 33.7217 29.4107H33.717Z" fill="#226597"/>
</svg>
