<svg width="40" height="40" viewBox="0 0 40 40" fill="none" xmlns="http://www.w3.org/2000/svg">
<path opacity="0.2" d="M16.25 16.25V32.5H6.25C5.91848 32.5 5.60054 32.3683 5.36612 32.1339C5.1317 31.8995 5 31.5815 5 31.25V16.25H16.25Z" fill="#226597"/>
<path d="M33.75 6.25H6.25C5.58696 6.25 4.95107 6.51339 4.48223 6.98223C4.01339 7.45107 3.75 8.08696 3.75 8.75V31.25C3.75 31.913 4.01339 32.5489 4.48223 33.0178C4.95107 33.4866 5.58696 33.75 6.25 33.75H33.75C34.413 33.75 35.0489 33.4866 35.5178 33.0178C35.9866 32.5489 36.25 31.913 36.25 31.25V8.75C36.25 8.08696 35.9866 7.45107 35.5178 6.98223C35.0489 6.51339 34.413 6.25 33.75 6.25ZM33.75 8.75V15H6.25V8.75H33.75ZM6.25 17.5H15V31.25H6.25V17.5ZM33.75 31.25H17.5V17.5H33.75V31.25Z" fill="#226597"/>
</svg>
