<svg width="40" height="40" viewBox="0 0 40 40" fill="none" xmlns="http://www.w3.org/2000/svg">
<path opacity="0.2" d="M35 8.75V31.25C35 31.5815 34.8683 31.8995 34.6339 32.1339C34.3995 32.3683 34.0815 32.5 33.75 32.5H6.25C5.91848 32.5 5.60054 32.3683 5.36612 32.1339C5.1317 31.8995 5 31.5815 5 31.25V8.75C5 8.41848 5.1317 8.10054 5.36612 7.86612C5.60054 7.6317 5.91848 7.5 6.25 7.5H33.75C34.0815 7.5 34.3995 7.6317 34.6339 7.86612C34.8683 8.10054 35 8.41848 35 8.75Z" fill="#226597"/>
<path d="M33.75 6.25H6.25C5.58696 6.25 4.95107 6.51339 4.48223 6.98223C4.01339 7.45107 3.75 8.08696 3.75 8.75V31.25C3.75 31.913 4.01339 32.5489 4.48223 33.0178C4.95107 33.4866 5.58696 33.75 6.25 33.75H33.75C34.413 33.75 35.0489 33.4866 35.5178 33.0178C35.9866 32.5489 36.25 31.913 36.25 31.25V8.75C36.25 8.08696 35.9866 7.45107 35.5178 6.98223C35.0489 6.51339 34.413 6.25 33.75 6.25ZM33.75 31.25H6.25V8.75H33.75V31.25ZM12.5 13.125C12.5 13.4958 12.39 13.8584 12.184 14.1667C11.978 14.475 11.6851 14.7154 11.3425 14.8573C10.9999 14.9992 10.6229 15.0363 10.2592 14.964C9.89549 14.8916 9.5614 14.713 9.29917 14.4508C9.03695 14.1886 8.85837 13.8545 8.78603 13.4908C8.71368 13.1271 8.75081 12.7501 8.89273 12.4075C9.03464 12.0649 9.27496 11.772 9.58331 11.566C9.89165 11.36 10.2542 11.25 10.625 11.25C11.1223 11.25 11.5992 11.4475 11.9508 11.7992C12.3025 12.1508 12.5 12.6277 12.5 13.125ZM18.75 13.125C18.75 13.4958 18.64 13.8584 18.434 14.1667C18.228 14.475 17.9351 14.7154 17.5925 14.8573C17.2499 14.9992 16.8729 15.0363 16.5092 14.964C16.1455 14.8916 15.8114 14.713 15.5492 14.4508C15.287 14.1886 15.1084 13.8545 15.036 13.4908C14.9637 13.1271 15.0008 12.7501 15.1427 12.4075C15.2846 12.0649 15.525 11.772 15.8333 11.566C16.1416 11.36 16.5042 11.25 16.875 11.25C17.3723 11.25 17.8492 11.4475 18.2008 11.7992C18.5525 12.1508 18.75 12.6277 18.75 13.125Z" fill="#226597"/>
</svg>
