<svg width="40" height="40" viewBox="0 0 40 40" fill="none" xmlns="http://www.w3.org/2000/svg">
<rect width="40" height="40" rx="20" fill="#226597"/>
<path opacity="0.2" d="M27.5004 26H12.5004C12.3691 25.9992 12.2403 25.964 12.127 25.8978C12.0136 25.8317 11.9195 25.7369 11.8542 25.6231C11.7889 25.5092 11.7547 25.3801 11.7549 25.2489C11.7551 25.1176 11.7897 24.9887 11.8554 24.875C12.4732 23.8062 13.2504 21.1072 13.2504 17.75C13.2504 15.9598 13.9615 14.2429 15.2274 12.977C16.4933 11.7112 18.2102 11 20.0004 11C21.7906 11 23.5075 11.7112 24.7733 12.977C26.0392 14.2429 26.7504 15.9598 26.7504 17.75C26.7504 21.1081 27.5285 23.8062 28.1472 24.875C28.213 24.9888 28.2476 25.1179 28.2477 25.2493C28.2478 25.3808 28.2134 25.5099 28.1479 25.6239C28.0824 25.7378 27.9881 25.8325 27.8744 25.8985C27.7608 25.9645 27.6318 25.9995 27.5004 26Z" fill="white"/>
<path d="M28.7936 24.4944C28.2733 23.5981 27.4999 21.0622 27.4999 17.75C27.4999 15.7609 26.7097 13.8532 25.3032 12.4467C23.8967 11.0402 21.989 10.25 19.9999 10.25C18.0108 10.25 16.1031 11.0402 14.6966 12.4467C13.2901 13.8532 12.4999 15.7609 12.4999 17.75C12.4999 21.0631 11.7255 23.5981 11.2052 24.4944C11.0723 24.7222 11.0019 24.9811 11.001 25.2449C11.0001 25.5086 11.0687 25.768 11.2 25.9967C11.3313 26.2255 11.5207 26.4156 11.7489 26.5478C11.9771 26.6801 12.2361 26.7498 12.4999 26.75H16.3258C16.4989 27.5967 16.959 28.3577 17.6285 28.9042C18.298 29.4507 19.1357 29.7492 19.9999 29.7492C20.8641 29.7492 21.7018 29.4507 22.3713 28.9042C23.0407 28.3577 23.5009 27.5967 23.674 26.75H27.4999C27.7636 26.7496 28.0225 26.6798 28.2506 26.5475C28.4787 26.4151 28.6678 26.225 28.799 25.9963C28.9302 25.7676 28.9988 25.5083 28.9979 25.2446C28.9969 24.9809 28.9265 24.7222 28.7936 24.4944ZM19.9999 28.25C19.5347 28.2499 19.081 28.1055 18.7013 27.8369C18.3215 27.5683 18.0343 27.1886 17.8793 26.75H22.1205C21.9655 27.1886 21.6783 27.5683 21.2985 27.8369C20.9187 28.1055 20.4651 28.2499 19.9999 28.25ZM12.4999 25.25C13.2218 24.0087 13.9999 21.1325 13.9999 17.75C13.9999 16.1587 14.632 14.6326 15.7572 13.5074C16.8825 12.3821 18.4086 11.75 19.9999 11.75C21.5912 11.75 23.1173 12.3821 24.2425 13.5074C25.3677 14.6326 25.9999 16.1587 25.9999 17.75C25.9999 21.1297 26.7761 24.0059 27.4999 25.25H12.4999Z" fill="white"/>
</svg>
