<svg width="66" height="66" viewBox="0 0 66 66" fill="none" xmlns="http://www.w3.org/2000/svg">
<rect width="66" height="66" rx="33" fill="#113A5B"/>
<path d="M53.1016 49.4062C50.127 44.2636 45.543 40.5761 40.1934 38.8281C42.8396 37.2528 44.8955 34.8524 46.0454 31.9956C47.1953 29.1388 47.3757 25.9835 46.5588 23.0143C45.7419 20.0451 43.9729 17.4261 41.5235 15.5596C39.074 13.693 36.0796 12.6821 33.0001 12.6821C29.9205 12.6821 26.9261 13.693 24.4767 15.5596C22.0273 17.4261 20.2583 20.0451 19.4414 23.0143C18.6245 25.9835 18.8048 29.1388 19.9547 31.9956C21.1047 34.8524 23.1606 37.2528 25.8067 38.8281C20.4571 40.5742 15.8731 44.2617 12.8985 49.4062C12.7894 49.5841 12.7171 49.782 12.6857 49.9883C12.6544 50.1945 12.6646 50.405 12.7159 50.6073C12.7672 50.8095 12.8585 50.9994 12.9844 51.1658C13.1103 51.3322 13.2683 51.4717 13.4489 51.5761C13.6296 51.6804 13.8294 51.7476 14.0364 51.7735C14.2435 51.7994 14.4536 51.7836 14.6544 51.727C14.8552 51.6703 15.0427 51.5741 15.2057 51.4439C15.3687 51.3136 15.504 51.1521 15.6036 50.9687C19.2833 44.6093 25.7872 40.8124 33.0001 40.8124C40.213 40.8124 46.7169 44.6093 50.3966 50.9687C50.4961 51.1521 50.6314 51.3136 50.7944 51.4439C50.9575 51.5741 51.1449 51.6703 51.3457 51.727C51.5466 51.7836 51.7567 51.7994 51.9637 51.7735C52.1708 51.7476 52.3705 51.6804 52.5512 51.5761C52.7319 51.4717 52.8898 51.3322 53.0157 51.1658C53.1416 50.9994 53.2329 50.8095 53.2842 50.6073C53.3355 50.405 53.3458 50.1945 53.3144 49.9883C53.2831 49.782 53.2107 49.5841 53.1016 49.4062ZM22.0626 26.7499C22.0626 24.5867 22.704 22.4721 23.9059 20.6734C25.1077 18.8747 26.8159 17.4728 28.8145 16.645C30.813 15.8172 33.0122 15.6006 35.1339 16.0226C37.2555 16.4446 39.2044 17.4863 40.734 19.016C42.2637 20.5456 43.3054 22.4945 43.7274 24.6161C44.1494 26.7378 43.9328 28.937 43.105 30.9355C42.2772 32.9341 40.8753 34.6423 39.0766 35.8441C37.278 37.046 35.1633 37.6874 33.0001 37.6874C30.1002 37.6843 27.32 36.531 25.2695 34.4805C23.219 32.43 22.0657 29.6498 22.0626 26.7499Z" fill="white"/>
</svg>
