<svg width="40" height="40" viewBox="0 0 40 40" fill="none" xmlns="http://www.w3.org/2000/svg">
<path d="M35.625 20C35.625 20.4973 35.4275 20.9742 35.0758 21.3258C34.7242 21.6775 34.2473 21.875 33.75 21.875H6.25C5.75272 21.875 5.27581 21.6775 4.92417 21.3258C4.57254 20.9742 4.375 20.4973 4.375 20C4.375 19.5027 4.57254 19.0258 4.92417 18.6742C5.27581 18.3225 5.75272 18.125 6.25 18.125H33.75C34.2473 18.125 34.7242 18.3225 35.0758 18.6742C35.4275 19.0258 35.625 19.5027 35.625 20ZM6.25 11.875H33.75C34.2473 11.875 34.7242 11.6775 35.0758 11.3258C35.4275 10.9742 35.625 10.4973 35.625 10C35.625 9.50272 35.4275 9.02581 35.0758 8.67417C34.7242 8.32254 34.2473 8.125 33.75 8.125H6.25C5.75272 8.125 5.27581 8.32254 4.92417 8.67417C4.57254 9.02581 4.375 9.50272 4.375 10C4.375 10.4973 4.57254 10.9742 4.92417 11.3258C5.27581 11.6775 5.75272 11.875 6.25 11.875ZM33.75 28.125H6.25C5.75272 28.125 5.27581 28.3225 4.92417 28.6742C4.57254 29.0258 4.375 29.5027 4.375 30C4.375 30.4973 4.57254 30.9742 4.92417 31.3258C5.27581 31.6775 5.75272 31.875 6.25 31.875H33.75C34.2473 31.875 34.7242 31.6775 35.0758 31.3258C35.4275 30.9742 35.625 30.4973 35.625 30C35.625 29.5027 35.4275 29.0258 35.0758 28.6742C34.7242 28.3225 34.2473 28.125 33.75 28.125Z" fill="#226597"/>
</svg>
