<svg width="37" height="36" viewBox="0 0 37 36" fill="none" xmlns="http://www.w3.org/2000/svg">
<rect x="0.833008" width="36" height="36" rx="18" fill="#C1CAD0"/>
<path opacity="0.2" d="M23.833 14.25V21.75H16.958C17.4525 21.75 17.9358 21.6034 18.3469 21.3287C18.7581 21.054 19.0785 20.6635 19.2677 20.2067C19.4569 19.7499 19.5064 19.2472 19.41 18.7623C19.3135 18.2773 19.0754 17.8319 18.7258 17.4822C18.3761 17.1326 17.9307 16.8945 17.4457 16.798C16.9608 16.7016 16.4581 16.7511 16.0013 16.9403C15.5445 17.1295 15.154 17.45 14.8793 17.8611C14.6046 18.2722 14.458 18.7555 14.458 19.25H13.833V14.25H23.833Z" fill="white"/>
<path d="M25.708 11.125H11.958C11.6265 11.125 11.3085 11.2567 11.0741 11.4911C10.8397 11.7255 10.708 12.0435 10.708 12.375V23.625C10.708 23.9565 10.8397 24.2745 11.0741 24.5089C11.3085 24.7433 11.6265 24.875 11.958 24.875H13.0041C13.1224 24.875 13.2383 24.8415 13.3382 24.7783C13.4382 24.7151 13.5182 24.6248 13.5689 24.518C13.8729 23.8763 14.3527 23.3341 14.9527 22.9544C15.5526 22.5748 16.248 22.3732 16.958 22.3732C17.668 22.3732 18.3634 22.5748 18.9634 22.9544C19.5633 23.3341 20.0431 23.8763 20.3471 24.518C20.3978 24.6248 20.4778 24.7151 20.5778 24.7783C20.6778 24.8415 20.7936 24.875 20.9119 24.875H25.708C26.0395 24.875 26.3575 24.7433 26.5919 24.5089C26.8263 24.2745 26.958 23.9565 26.958 23.625V12.375C26.958 12.0435 26.8263 11.7255 26.5919 11.4911C26.3575 11.2567 26.0395 11.125 25.708 11.125ZM15.083 19.25C15.083 18.8792 15.193 18.5166 15.399 18.2083C15.605 17.9 15.8979 17.6596 16.2405 17.5177C16.5831 17.3758 16.9601 17.3387 17.3238 17.411C17.6875 17.4834 18.0216 17.662 18.2838 17.9242C18.5461 18.1864 18.7246 18.5205 18.797 18.8842C18.8693 19.2479 18.8322 19.6249 18.6903 19.9675C18.5484 20.3101 18.308 20.603 17.9997 20.809C17.6914 21.015 17.3288 21.125 16.958 21.125C16.4607 21.125 15.9838 20.9275 15.6322 20.5758C15.2806 20.2242 15.083 19.7473 15.083 19.25ZM25.708 23.625H21.2885C20.7666 22.7277 19.9798 22.0138 19.0361 21.5812C19.5092 21.16 19.8432 20.6049 19.9936 19.9895C20.144 19.3741 20.1039 18.7276 19.8785 18.1356C19.6532 17.5435 19.2532 17.034 18.7316 16.6744C18.21 16.3149 17.5915 16.1224 16.958 16.1224C16.3245 16.1224 15.706 16.3149 15.1844 16.6744C14.6628 17.034 14.2629 17.5435 14.0375 18.1356C13.8121 18.7276 13.772 19.3741 13.9224 19.9895C14.0729 20.6049 14.4068 21.16 14.8799 21.5812C13.9362 22.0138 13.1495 22.7277 12.6275 23.625H11.958V12.375H25.708V23.625ZM13.208 15.5V14.25C13.208 14.0842 13.2739 13.9253 13.3911 13.8081C13.5083 13.6908 13.6672 13.625 13.833 13.625H23.833C23.9988 13.625 24.1577 13.6908 24.275 13.8081C24.3922 13.9253 24.458 14.0842 24.458 14.25V21.75C24.458 21.9158 24.3922 22.0747 24.275 22.1919C24.1577 22.3092 23.9988 22.375 23.833 22.375H22.583C22.4172 22.375 22.2583 22.3092 22.1411 22.1919C22.0239 22.0747 21.958 21.9158 21.958 21.75C21.958 21.5842 22.0239 21.4253 22.1411 21.3081C22.2583 21.1908 22.4172 21.125 22.583 21.125H23.208V14.875H14.458V15.5C14.458 15.6658 14.3922 15.8247 14.2749 15.9419C14.1577 16.0592 13.9988 16.125 13.833 16.125C13.6672 16.125 13.5083 16.0592 13.3911 15.9419C13.2739 15.8247 13.208 15.6658 13.208 15.5Z" fill="white"/>
</svg>
