<svg width="36" height="36" viewBox="0 0 36 36" fill="none" xmlns="http://www.w3.org/2000/svg">
<rect width="36" height="36" rx="18" fill="#C1CAD0"/>
<path opacity="0.2" d="M26.0986 24.6976C26.1303 24.8052 26.1323 24.9195 26.1045 25.0282C26.0768 25.137 26.0203 25.2362 25.9409 25.3156C25.8615 25.395 25.7623 25.4515 25.6535 25.4793C25.5448 25.507 25.4305 25.505 25.3229 25.4733L23.1564 24.8358C22.4408 25.2186 21.6509 25.442 20.8408 25.4909C20.0307 25.5397 19.2197 25.4128 18.4632 25.1189C17.7068 24.825 17.0228 24.371 16.4582 23.788C15.8937 23.205 15.4619 22.5068 15.1924 21.7413C15.2947 21.7468 15.3971 21.7499 15.5002 21.7499C16.3993 21.75 17.2853 21.5345 18.0839 21.1216C18.8826 20.7087 19.5707 20.1104 20.0904 19.3767C20.6102 18.6431 20.9465 17.7956 21.0712 16.9052C21.196 16.0148 21.1054 15.1075 20.8072 14.2593C21.7521 14.3106 22.6688 14.5994 23.4724 15.0991C24.276 15.5988 24.9406 16.2931 25.4046 17.1178C25.8686 17.9426 26.117 18.871 26.1269 19.8172C26.1368 20.7635 25.9078 21.6969 25.4611 22.5312L26.0986 24.6976Z" fill="white"/>
<path d="M26.1309 22.5907C26.5627 21.695 26.7746 20.7092 26.749 19.7151C26.7233 18.7211 26.4608 17.7475 25.9833 16.8752C25.5058 16.003 24.8271 15.2573 24.0035 14.7C23.18 14.1428 22.2353 13.7901 21.248 13.6712C20.9195 12.9074 20.442 12.2169 19.8432 11.64C19.2445 11.0631 18.5367 10.6114 17.7613 10.3115C16.9859 10.0116 16.1584 9.86935 15.3273 9.8932C14.4962 9.91705 13.6782 10.1065 12.9213 10.4504C12.1643 10.7943 11.4836 11.2858 10.9189 11.8961C10.3543 12.5064 9.91709 13.2232 9.63293 14.0045C9.34877 14.7859 9.22337 15.6161 9.26406 16.4465C9.30475 17.277 9.51073 18.0909 9.86992 18.8407L9.30195 20.7712C9.23844 20.9867 9.2342 21.2154 9.28966 21.4331C9.34511 21.6508 9.45823 21.8496 9.61709 22.0084C9.77596 22.1673 9.97471 22.2804 10.1924 22.3359C10.4101 22.3913 10.6388 22.3871 10.8543 22.3236L12.7848 21.7556C13.4046 22.0534 14.0692 22.2474 14.7519 22.3298C15.0837 23.107 15.5695 23.8089 16.1802 24.393C16.7908 24.977 17.5135 25.4312 18.3047 25.7281C19.0959 26.0249 19.939 26.1583 20.7832 26.12C21.6273 26.0818 22.4549 25.8728 23.216 25.5056L25.1465 26.0736C25.3619 26.137 25.5904 26.1412 25.8081 26.0858C26.0257 26.0304 26.2244 25.9173 26.3832 25.7586C26.542 25.5998 26.6552 25.4012 26.7107 25.1836C26.7663 24.966 26.7621 24.7375 26.6988 24.522L26.1309 22.5907ZM12.8441 20.4611C12.7844 20.4612 12.725 20.4696 12.6676 20.4861L10.5004 21.1251L11.1387 18.9564C11.1841 18.7997 11.1664 18.6315 11.0894 18.4876C10.5241 17.4303 10.3575 16.2049 10.62 15.035C10.8826 13.8651 11.5569 12.8285 12.5199 12.1141C13.4829 11.3998 14.6705 11.0553 15.8663 11.1435C17.0621 11.2316 18.1864 11.7466 19.0342 12.5944C19.8821 13.4423 20.397 14.5665 20.4852 15.7623C20.5733 16.9581 20.2288 18.1457 19.5145 19.1088C18.8002 20.0718 17.7635 20.746 16.5936 21.0086C15.4237 21.2712 14.1984 21.1046 13.141 20.5392C13.0501 20.4889 12.9481 20.462 12.8441 20.4611ZM24.859 22.7056L25.5004 24.8751L23.3316 24.2368C23.175 24.1914 23.0067 24.2091 22.8629 24.2861C21.712 24.9006 20.3665 25.0413 19.1134 24.6782C17.8602 24.3151 16.7984 23.477 16.1543 22.3423C17.0101 22.253 17.8381 21.9878 18.5866 21.5633C19.335 21.1389 19.9876 20.5643 20.5035 19.8758C21.0194 19.1872 21.3875 18.3994 21.5846 17.5619C21.7817 16.7243 21.8035 15.8551 21.6488 15.0087C22.3944 15.1845 23.0897 15.5292 23.6809 16.0163C24.2722 16.5034 24.7436 17.1198 25.0588 17.818C25.374 18.5162 25.5246 19.2775 25.4989 20.0431C25.4732 20.8088 25.2719 21.5582 24.9105 22.2337C24.8328 22.3784 24.8151 22.5479 24.8613 22.7056H24.859Z" fill="white"/>
</svg>
