<svg width="40" height="40" viewBox="0 0 40 40" fill="none" xmlns="http://www.w3.org/2000/svg">
<rect width="40" height="40" rx="20" fill="#226597"/>
<path d="M29.6484 27.8751C28.2206 25.4067 26.0203 23.6367 23.4525 22.7976C24.7226 22.0415 25.7094 20.8893 26.2614 19.518C26.8134 18.1468 26.8999 16.6322 26.5078 15.207C26.1157 13.7818 25.2666 12.5247 24.0909 11.6287C22.9151 10.7328 21.4778 10.2476 19.9996 10.2476C18.5215 10.2476 17.0841 10.7328 15.9084 11.6287C14.7327 12.5247 13.8836 13.7818 13.4915 15.207C13.0993 16.6322 13.1859 18.1468 13.7379 19.518C14.2898 20.8893 15.2767 22.0415 16.5468 22.7976C13.979 23.6357 11.7787 25.4057 10.3509 27.8751C10.2985 27.9605 10.2638 28.0555 10.2488 28.1545C10.2337 28.2535 10.2386 28.3545 10.2633 28.4516C10.2879 28.5487 10.3317 28.6399 10.3921 28.7197C10.4526 28.7996 10.5284 28.8666 10.6151 28.9167C10.7018 28.9667 10.7977 28.999 10.8971 29.0114C10.9965 29.0238 11.0973 29.0163 11.1937 28.9891C11.2901 28.9619 11.3801 28.9157 11.4584 28.8532C11.5366 28.7907 11.6015 28.7131 11.6493 28.6251C13.4156 25.5726 16.5375 23.7501 19.9996 23.7501C23.4618 23.7501 26.5837 25.5726 28.35 28.6251C28.3977 28.7131 28.4627 28.7907 28.5409 28.8532C28.6192 28.9157 28.7092 28.9619 28.8056 28.9891C28.902 29.0163 29.0028 29.0238 29.1022 29.0114C29.2016 28.999 29.2975 28.9667 29.3842 28.9167C29.4709 28.8666 29.5467 28.7996 29.6072 28.7197C29.6676 28.6399 29.7114 28.5487 29.736 28.4516C29.7607 28.3545 29.7656 28.2535 29.7505 28.1545C29.7355 28.0555 29.7008 27.9605 29.6484 27.8751ZM14.7496 17.0001C14.7496 15.9618 15.0576 14.9467 15.6344 14.0834C16.2113 13.22 17.0312 12.5471 17.9906 12.1497C18.9499 11.7524 20.0055 11.6484 21.0239 11.851C22.0423 12.0536 22.9777 12.5536 23.712 13.2878C24.4462 14.022 24.9462 14.9575 25.1488 15.9759C25.3513 16.9943 25.2474 18.0499 24.85 19.0092C24.4527 19.9685 23.7797 20.7884 22.9164 21.3653C22.053 21.9422 21.038 22.2501 19.9996 22.2501C18.6077 22.2486 17.2732 21.695 16.289 20.7108C15.3047 19.7265 14.7511 18.392 14.7496 17.0001Z" fill="white"/>
</svg>
